<svg width="1440" height="125" viewBox="0 0 1440 125" fill="none" xmlns="http://www.w3.org/2000/svg">
<path d="M129.711 35L0 177L1.04327e-05 -107L129.711 35Z" fill="#252525" fill-opacity="0.65"/>
<path d="M228.009 -71L129.712 35L129.712 -177L228.009 -71Z" fill="#252525" fill-opacity="0.65"/>
<path d="M228.009 141L129.712 247L129.712 35L228.009 141Z" fill="#252525" fill-opacity="0.65"/>
<path d="M300.971 61.5L256.383 110L256.383 13L300.971 61.5Z" fill="#252525" fill-opacity="0.65"/>
<path d="M533.033 167.5L434.736 274L434.736 61L533.033 167.5Z" fill="#252525" fill-opacity="0.65"/>
<path d="M256.383 110L228.009 141L228.009 79L256.383 110Z" fill="#252525" fill-opacity="0.65"/>
<path d="M686.052 3.50001L641.464 52L641.464 -45L686.052 3.50001Z" fill="#252525" fill-opacity="0.65"/>
<path d="M641.464 52L613.09 83L613.09 21L641.464 52Z" fill="#252525" fill-opacity="0.65"/>
<path d="M321.238 84L300.971 106L300.971 62L321.238 84Z" fill="#252525" fill-opacity="0.65"/>
<path d="M291.851 -2.5L275.637 17L275.637 -22L291.851 -2.5Z" fill="#252525" fill-opacity="0.65"/>
<path d="M733.68 53L719.493 68L719.493 38L733.68 53Z" fill="#252525" fill-opacity="0.65"/>
<path d="M764.082 57L749.894 72L749.894 42L764.082 57Z" fill="#252525" fill-opacity="0.65"/>
<path d="M749.894 72.5L733.68 92L733.68 53L749.894 72.5Z" fill="#252525" fill-opacity="0.65"/>
<path d="M880.619 59L844.138 103L844.138 15L880.619 59Z" fill="#252525" fill-opacity="0.65"/>
<path d="M657.678 72.5L641.464 92L641.464 53L657.678 72.5Z" fill="#252525" fill-opacity="0.65"/>
<path d="M719.493 38.5L686.052 73L686.052 4L719.493 38.5Z" fill="#252525" fill-opacity="0.65"/>
<path d="M418.522 80L404.335 95L404.335 65L418.522 80Z" fill="#252525" fill-opacity="0.65"/>
<path d="M434.736 60.5L418.522 80L418.522 41L434.736 60.5Z" fill="#252525" fill-opacity="0.65"/>
<path d="M443.857 10.5L418.522 41L418.522 -20L443.857 10.5Z" fill="#252525" fill-opacity="0.65"/>
<path d="M404.335 65.5L370.894 100L370.894 31L404.335 65.5Z" fill="#252525" fill-opacity="0.65"/>
<path d="M370.962 30.6038L321.238 84.2076L321.238 -23L370.962 30.6038Z" fill="#252525" fill-opacity="0.65"/>
<path d="M1440 110.5L1341.7 217L1341.7 4L1440 110.5Z" fill="#252525" fill-opacity="0.65"/>
<path d="M1228.21 27L1207.94 49L1207.94 5L1228.21 27Z" fill="#252525" fill-opacity="0.65"/>
<path d="M1325.49 23L1311.3 38L1311.3 8L1325.49 23Z" fill="#252525" fill-opacity="0.65"/>
<path d="M1341.7 3.5L1325.49 23L1325.49 -16L1341.7 3.5Z" fill="#252525" fill-opacity="0.65"/>
<path d="M1311.3 8.50001L1277.86 43L1277.86 -26L1311.3 8.50001Z" fill="#252525" fill-opacity="0.65"/>
<path d="M1277.93 -26.3962L1228.21 27.2076L1228.21 -80L1277.93 -26.3962Z" fill="#252525" fill-opacity="0.65"/>
<path d="M1076.2 76.5L977.903 183L977.903 -30L1076.2 76.5Z" fill="#252525" fill-opacity="0.65"/>
<path d="M864.405 -7L844.138 15L844.138 -29L864.405 -7Z" fill="#252525" fill-opacity="0.65"/>
<path d="M1213 125L1174.5 166L1174.5 84L1213 125Z" fill="#252525" fill-opacity="0.65"/>
<path d="M961.689 -11L947.502 4L947.502 -26L961.689 -11Z" fill="#252525" fill-opacity="0.65"/>
<path d="M947.502 -25.5L914.061 9L914.061 -60L947.502 -25.5Z" fill="#252525" fill-opacity="0.65"/>
<path d="M1124.84 68L1104.57 90L1104.57 46L1124.84 68Z" fill="#252525" fill-opacity="0.65"/>
<path d="M1207.94 49.5L1174.5 84L1174.5 15L1207.94 49.5Z" fill="#252525" fill-opacity="0.65"/>
<path d="M1174.57 14.6038L1124.84 68.2076L1124.84 -39L1174.57 14.6038Z" fill="#252525" fill-opacity="0.65"/>
<path d="M613.089 82.5L533.033 168L533.033 -3L613.089 82.5Z" fill="#252525" fill-opacity="0.65"/>
<path d="M1104.57 46L1076.2 77L1076.2 15L1104.57 46Z" fill="#252525" fill-opacity="0.65"/>
<path d="M844.138 -28.5L764.082 57L764.082 -114L844.138 -28.5Z" fill="#252525" fill-opacity="0.65"/>
</svg>
