<svg width="509" height="97" viewBox="0 0 509 97" fill="none" xmlns="http://www.w3.org/2000/svg">
<path d="M307.78 -58.932L205.728 54.4598L205.728 -172.324L307.78 -58.932Z" fill="#EFB737"/>
<path d="M314.998 175.986L204.993 297.956L204.993 54.0164L314.998 175.986Z" fill="#EFB737"/>
<path d="M394.961 89.1139L346.364 142.641L346.364 35.5864L394.961 89.1139Z" fill="#EFB737"/>
<path d="M443.557 35.588L394.961 89.1154L394.961 -17.9395L443.557 35.588Z" fill="#EFB737"/>
<path d="M505.402 35.1492L474.477 68.9329L474.477 1.36548L505.402 35.1492Z" fill="#EFB737"/>
<path d="M474.481 69.3701L443.556 103.154L443.556 35.5864L474.481 69.3701Z" fill="#EFB737"/>
<path d="M425.886 122.901L394.961 156.685L394.961 89.1172L425.886 122.901Z" fill="#EFB737"/>
<path d="M338.7 -25.1487L307.775 8.63503L307.775 -58.9324L338.7 -25.1487Z" fill="#EFB737"/>
<path d="M204.989 54.0175L0 281.29L1.64873e-05 -173.255L204.989 54.0175Z" fill="#EFB737"/>
</svg>
