<svg xmlns="http://www.w3.org/2000/svg" xmlns:xlink="http://www.w3.org/1999/xlink"><defs><symbol viewBox="0 0 6 6" fill="none" id="arrow-down"><path d="M3.40733 3.88584C3.21801 4.42227 3.02868 5.14803 2.96557 6L2.86758 6L2.90651 2.90634L3.28278 2.26328C3.7561 1.44286 4.70107 0.604169 5.48994 0.0677414C5.55304 0.0361867 5.5846 0.00463198 5.64771 0.00463199L5.77393 0.509505C5.48994 0.698832 5.2375 0.919714 5.01662 1.1406C4.85884 1.29837 4.63796 1.55081 4.38553 1.92946C3.82338 2.74144 3.53942 3.52252 3.41128 3.875L3.40733 3.88584Z" fill="#000" /><path d="M2.36659 3.88096C2.55592 4.41739 2.74525 5.14314 2.80836 5.99512L2.88688 5.99512L2.90634 2.90612L2.4506 2.25839C1.97729 1.43797 1.07286 0.599286 0.283992 0.0628586C0.220882 0.0313039 0.189328 -0.0002508 0.126219 -0.000250805L4.79994e-07 0.504622C0.283992 0.69395 0.536428 0.914832 0.75731 1.13571C0.915083 1.29349 1.13596 1.54592 1.3884 1.92458C1.95054 2.73656 2.2345 3.51764 2.36265 3.87011L2.36659 3.88096Z" fill="#000" /></symbol><symbol viewBox="0 0 50 7" fill="none" id="arrow-right"><path d="M46.6767 2.89889C47.3227 3.12689 48.1967 3.35489 49.2227 3.43089L49.2227 3.54889L0.998047 3.54889L0.998047 3.04889L44.7227 3.04889C43.7347 2.47889 42.7247 1.34089 42.0787 0.390889C42.0407 0.314889 42.0027 0.276889 42.0027 0.200889L42.6107 0.0488889C42.8387 0.390889 43.1047 0.694889 43.3707 0.960889C43.5607 1.15089 43.8647 1.41689 44.3207 1.72089C45.2985 2.39786 46.2391 2.73982 46.6636 2.89414L46.6767 2.89889Z" fill="#F2BE47" /><path d="M46.6767 4.15006C47.3227 3.92206 48.1967 3.69406 49.2227 3.61806L49.2227 3.54889L0.998047 3.54889L0.998047 4.04888L44.7227 4.04889C43.7347 4.61889 42.7247 5.70806 42.0787 6.65806C42.0407 6.73406 42.0027 6.77206 42.0027 6.84806L42.6107 7.00006C42.8387 6.65806 43.1047 6.35406 43.3707 6.08806C43.5607 5.89806 43.8647 5.63206 44.3207 5.32806C45.2985 4.65109 46.2391 4.30913 46.6636 4.15481L46.6767 4.15006Z" fill="#F2BE47" /></symbol><symbol viewBox="0 0 10 10" fill="none" id="download"><g clip-path="url(#download_clip0_676_16760)"><path d="M9.64509 3.92773H0.359375V9.64202H9.64509V3.92773Z" stroke="#000" /><path d="M7.85491 0H2.14062V5.71429H7.85491V0Z" fill="#F4F6F8" /><path d="M5.0089 7L6.84592 3.81818H3.17188L5.0089 7ZM4.69072 2.78163e-08V4.13636H5.32708V0L4.69072 2.78163e-08Z" fill="#F2BE47" /></g><defs></defs></symbol><clipPath id="download_clip0_676_16760"><rect fill="#fff" /></clipPath><symbol viewBox="0 0 8 8" fill="none" id="download-investors"><g clip-path="url(#download-investors_clip0_775_4375)"><path d="M7.71568 3.14062H0.287109V7.71205H7.71568V3.14062Z" stroke="#F2BE47" stroke-width="0.666667" /><path d="M6.28432 0H1.71289V4.57143H6.28432V0Z" fill="#2D2D2D" /><path d="M4.00673 5.6L5.47635 3.05455H2.53711L4.00673 5.6ZM3.75218 2.22531e-08V3.30909H4.26127V0L3.75218 2.22531e-08Z" fill="#F2BE47" /></g><defs></defs></symbol><clipPath id="download-investors_clip0_775_4375"><rect fill="#fff" /></clipPath><symbol viewBox="0 0 12 12" fill="none" id="download-yellow"><g clip-path="url(#download-yellow_clip0_676_15113)"><path d="M11.5743 4.71289H0.431458V11.57H11.5743V4.71289Z" stroke="#F2BE47" /><path d="M9.42569 0H2.56854V6.85714H9.42569V0Z" fill="#fff" /><path d="M6.01089 8.4L8.21531 4.58182H3.80646L6.01089 8.4ZM5.62907 3.33796e-08V4.96364H6.3927V0L5.62907 3.33796e-08Z" fill="#F2BE47" /></g><defs></defs></symbol><clipPath id="download-yellow_clip0_676_15113"><rect fill="#fff" /></clipPath><symbol viewBox="0 0 21 14" fill="none" id="email"><g clip-path="url(#email_clip0_461_26)"><path d="M20.68 0.318359H0.316406V13.682H20.68V0.318359Z" fill="#3F4347" stroke="#F4F6F8" stroke-width="1.5" /><path d="M-1 14L10.5001 6L22 14H-1Z" stroke="#F4F6F8" stroke-width="1.5" /><path d="M21 1.32622e-06L10.4999 9L0 0L21 1.32622e-06Z" fill="#F2BE47" stroke="#F4F6F8" stroke-width="1.5" /></g><defs></defs></symbol><clipPath id="email_clip0_461_26"><rect fill="#fff" /></clipPath><symbol viewBox="0 0 10 10" fill="none" id="footer_download"><g clip-path="url(#footer_download_clip0_1_37)"><path d="M9.64509 3.92773H0.359375V9.64202H9.64509V3.92773Z" stroke="#F2BE47" /><path d="M7.85491 0H2.14062V5.71429H7.85491V0Z" fill="#000" /><path d="M5.0089 7L6.84592 3.81818H3.17188L5.0089 7ZM4.69072 2.78163e-08V4.13636H5.32708V0L4.69072 2.78163e-08Z" fill="#F2BE47" /></g><defs></defs></symbol><clipPath id="footer_download_clip0_1_37"><rect fill="#fff" /></clipPath><symbol viewBox="0 0 16 10" fill="none" id="footer_email"><g clip-path="url(#footer_email_clip0_1_31)"><path d="M15.77 0.227295H1.22455V9.77275H15.77V0.227295Z" fill="#fff" stroke="#000" stroke-width="1.07143" /><path d="M0.284241 9.99993L8.49858 4.28564L16.7128 9.99993H0.284241Z" stroke="#000" stroke-width="1.07143" /><path d="M15.9985 9.47302e-07L8.49848 6.42857L0.998535 0L15.9985 9.47302e-07Z" fill="#F2BE47" stroke="#000" stroke-width="1.07143" /></g><defs></defs></symbol><clipPath id="footer_email_clip0_1_31"><rect fill="#fff" transform="translate(0.998535)" /></clipPath><symbol viewBox="0 0 162 33" fill="none" id="logo-times"><path d="M60.4546 2.3024H45.1514V3.01872C47.1988 2.91459 47.8982 3.40489 48.212 5.16768V28.0248C48.3289 30.0956 47.6233 30.6675 45.1514 30.7599V31.346H54.3985V30.7599C52.3495 30.8405 51.7027 30.1872 51.2727 28.0248V3.73504H57.7196C60.7628 3.72044 61.7814 4.59366 62.0175 8.16321H62.4733V1H62.0175C61.7242 1.7717 61.3983 2.07041 60.4546 2.3024Z" fill="#F2BE47" /><path d="M161 1H66.1201V32.3879H161V1Z" fill="#F2BE47" /><path fill-rule="evenodd" clip-rule="evenodd" d="M1 2.36752H10.1819V2.9536C7.82539 2.99471 7.19671 3.53563 7.05617 5.2328V16.3032H11.3541C12.0053 7.31665 18.908 1.58608 26.4619 1.58608C34.602 1.58608 41.114 7.64225 41.5047 16.3032C41.5047 24.5735 36.0346 31.4762 26.4619 31.932C17.5405 31.5413 12.0053 24.8991 11.3541 17.4103H7.05617V28.1551C7.35556 30.2329 8.03331 30.791 10.1819 30.7599V31.346H1V30.7599C3.32806 30.6598 3.94195 30.0311 4.12576 28.1551V5.2328C3.93853 3.40269 3.20754 2.94605 1 2.9536V2.36752ZM38.1184 16.3032C38.3138 7.44689 33.8856 2.82336 26.4619 2.49776C19.9499 2.49776 14.6168 7.44689 14.8055 16.3032C14.8055 25.3549 19.3639 30.9552 26.4619 30.7599C33.8205 30.7599 38.1184 26.4121 38.1184 16.3032Z" fill="#F2BE47" /><path d="M60.4546 2.3024H45.1514V3.01872C47.1988 2.91459 47.8982 3.40489 48.212 5.16768V28.0248C48.3289 30.0956 47.6233 30.6675 45.1514 30.7599V31.346H54.3985V30.7599C52.3495 30.8405 51.7027 30.1872 51.2727 28.0248V3.73504H57.7196C60.7628 3.72044 61.7814 4.59366 62.0175 8.16321H62.4733V1H62.0175C61.7242 1.7717 61.3983 2.07041 60.4546 2.3024Z" stroke="#F2BE47" stroke-width="0.13024" /><path d="M161 1H66.1201V32.3879H161V1Z" stroke="#F2BE47" stroke-width="0.13024" /><path fill-rule="evenodd" clip-rule="evenodd" d="M1 2.36752H10.1819V2.9536C7.82539 2.99471 7.19671 3.53563 7.05617 5.2328V16.3032H11.3541C12.0053 7.31665 18.908 1.58608 26.4619 1.58608C34.602 1.58608 41.114 7.64225 41.5047 16.3032C41.5047 24.5735 36.0346 31.4762 26.4619 31.932C17.5405 31.5413 12.0053 24.8991 11.3541 17.4103H7.05617V28.1551C7.35556 30.2329 8.03331 30.791 10.1819 30.7599V31.346H1V30.7599C3.32806 30.6598 3.94195 30.0311 4.12576 28.1551V5.2328C3.93853 3.40269 3.20754 2.94605 1 2.9536V2.36752ZM38.1184 16.3032C38.3138 7.44689 33.8856 2.82336 26.4619 2.49776C19.9499 2.49776 14.6168 7.44689 14.8055 16.3032C14.8055 25.3549 19.3639 30.9552 26.4619 30.7599C33.8205 30.7599 38.1184 26.4121 38.1184 16.3032Z" stroke="#F2BE47" stroke-width="0.13024" /><path d="M69.1156 9.59585V3.47456H70.0273C69.9428 4.11497 70.1662 4.39344 71.1994 4.71184H87.7399C88.9839 4.40845 89.1843 4.10297 89.2377 3.47456H90.0842V9.59585H89.2377C89.362 7.26838 88.8984 6.48617 87.1538 5.94913H81.1628V25.8759C81.4096 27.2456 81.94 27.6118 83.442 27.6992V28.4807H75.9532V27.6992C77.5064 27.5501 78.0036 27.1367 78.2975 25.8759V5.94913H72.7623C70.8789 6.14224 70.2096 6.83385 70.0273 9.59585H69.1156Z" fill="#fff" /><path d="M99.0057 4.51648H91.5169V5.36304C93.3784 5.34487 93.8915 5.68229 93.9263 6.86081V25.8759C93.6442 27.2595 93.1553 27.6982 91.5169 27.6992V28.4807H99.0057V27.6992C97.2683 27.5262 96.8146 27.0987 96.7265 25.8759L96.7916 6.86081C97.1328 5.77373 97.607 5.43541 99.0057 5.36304V4.51648Z" fill="#fff" /><path d="M106.69 4.51648H100.959V5.36304C103.178 5.40928 103.826 5.77658 104.215 6.86081L102.913 26.2015C102.544 27.3818 101.983 27.6908 100.438 27.6992V28.4807H106.69V27.6992C105.054 27.6421 104.501 27.3623 104.476 26.2015L105.062 7.83761L112.551 28.2853H113.267L121.016 7.25153L121.537 26.2015C121.33 27.1615 120.894 27.5247 119.258 27.6992V28.4807H127.007V27.6992C125.292 27.839 124.702 27.5599 124.533 26.2015L123.686 6.47009C123.987 5.66429 124.473 5.40494 126.031 5.36304V4.51648H120.886L113.658 23.4013L106.69 4.51648Z" fill="#fff" /><path d="M142.897 4.51648H128.505V5.5584C130.186 5.30208 130.786 5.57618 131.045 7.05617V25.5503C131.131 26.9755 130.648 27.4711 128.635 27.6992V28.4807H142.897L143.678 24.3781H142.897C142.639 26.0213 142.173 26.6756 140.617 27.2434H135.408C134.272 27.2097 134.005 26.7499 133.845 25.5503V17.2149H139.576C140.695 17.3217 141.054 17.7994 141.138 19.3639H141.594V13.8287H141.138C141.13 15.0425 140.909 15.5787 139.576 15.9125H133.845V5.88401H140.096C141.635 6.11094 142.134 6.65458 142.115 8.68417H142.897V4.51648Z" fill="#fff" /><path d="M157.288 9.46561V4.256H156.702C156.61 5.24472 156.212 5.29054 155.009 4.64672C153.963 4.38703 153.377 4.29516 152.339 4.256C148.432 4.256 146.08 6.89878 145.501 9.46561C145.108 13.2138 146.068 14.9624 150.06 17.4103C157.418 20.3407 158.395 26.8527 151.753 27.8295C147.356 27.4663 146.109 26.2053 145.501 22.5547H144.72V28.8714H145.501C145.484 27.5273 145.587 27.0419 146.218 27.2434C147.83 28.4547 149.057 28.7983 151.753 28.8714C156.507 28.4807 158.395 26.1363 158.395 22.2943C158.513 19.3908 157.028 17.8954 150.581 14.3496C145.371 11.4843 147.976 5.00632 152.079 5.2328C154.805 5.38332 156.311 6.40497 156.702 9.46561H157.288Z" fill="#fff" /><path d="M60.4546 2.3024H45.1514V3.01872C47.1988 2.91459 47.8982 3.40489 48.212 5.16768V28.0248C48.3289 30.0956 47.6233 30.6675 45.1514 30.7599V31.346H54.3985V30.7599C52.3495 30.8405 51.7027 30.1872 51.2727 28.0248V3.73504H57.7196C60.7628 3.72044 61.7814 4.59366 62.0175 8.16321H62.4733V1H62.0175C61.7242 1.7717 61.3983 2.07041 60.4546 2.3024Z" fill="#000" /><path fill-rule="evenodd" clip-rule="evenodd" d="M1 2.36752H10.1819V2.9536C7.82539 2.99471 7.19671 3.53563 7.05617 5.2328V16.3032H11.3541C12.0053 7.31665 18.908 1.58608 26.4619 1.58608C34.602 1.58608 41.114 7.64225 41.5047 16.3032C41.5047 24.5735 36.0346 31.4762 26.4619 31.932C17.5405 31.5413 12.0053 24.8991 11.3541 17.4103H7.05617V28.1551C7.35556 30.2329 8.03331 30.791 10.1819 30.7599V31.346H1V30.7599C3.32806 30.6598 3.94195 30.0311 4.12576 28.1551V5.2328C3.93853 3.40269 3.20754 2.94605 1 2.9536V2.36752ZM38.1184 16.3032C38.3138 7.44689 33.8856 2.82336 26.4619 2.49776C19.9499 2.49776 14.6168 7.44689 14.8055 16.3032C14.8055 25.3549 19.3639 30.9552 26.4619 30.7599C33.8205 30.7599 38.1184 26.4121 38.1184 16.3032Z" fill="#000" /></symbol><symbol viewBox="0 0 16 16" fill="none" id="menu"><g clip-path="url(#menu_clip0_1_378)"><path d="M3.6129 0H0V3.6129H3.6129V0Z" fill="#F2BE47" /><path d="M9.80822 0H6.19531V3.6129H9.80822V0Z" fill="#F2BE47" /><path d="M15.9996 0H12.3867V3.6129H15.9996V0Z" fill="#F2BE47" /><path d="M3.6129 12.3867H0V15.9996H3.6129V12.3867Z" fill="#F2BE47" /><path d="M9.80822 12.3867H6.19531V15.9996H9.80822V12.3867Z" fill="#3E4447" /><path d="M15.9996 12.3867H12.3867V15.9996H15.9996V12.3867Z" fill="#3E4447" /><path d="M3.6129 6.1936H0V9.80651H3.6129V6.1936Z" fill="#F2BE47" /><path d="M9.80822 6.19336H6.19531V9.80626H9.80822V6.19336Z" fill="#F2BE47" /><path d="M15.9996 6.19336H12.3867V9.80626H15.9996V6.19336Z" fill="#3E4447" /></g><defs></defs></symbol><clipPath id="menu_clip0_1_378"><rect fill="#fff" /></clipPath><symbol viewBox="0 0 14 14" fill="none" id="phone"><path d="M10.7799 13.3735L10.084 13.7573C6.01295 15.8696 -1.04713 3.5525 2.92128 1.225L3.5892 0.853417L5.7557 4.62583L5.09128 4.9945C3.88553 5.72075 6.70128 10.6569 7.93737 9.97908L8.6152 9.60458L10.7799 13.3735ZM5.05862 0L4.07862 0.56875L6.24512 4.34058L7.2257 3.77183L5.05862 0ZM10.0829 8.74825L9.10286 9.317L11.2694 13.0894L12.2499 12.5207L10.0829 8.74825Z" fill="#3F4347" /><path d="M4.07862 0.56875L5.05862 0L7.2257 3.77183L6.24512 4.34058L4.07862 0.56875Z" fill="#F2BE47" /><path d="M9.10286 9.317L10.0829 8.74825L12.2499 12.5207L11.2694 13.0894L9.10286 9.317Z" fill="#F2BE47" /></symbol><symbol viewBox="0 0 14 13" fill="none" id="telegram"><path d="M0.855746 5.6248L9.20782 2.08387C10.0293 1.65895 12.7677 0.525855 12.7677 0.525855C12.7677 0.525855 14 -0.040695 14 1.23404C14 1.80059 13.7262 3.50024 13.4523 5.48317L12.4939 11.2903C12.4939 11.2903 12.357 12.1401 11.8093 12.2818C11.2616 12.4234 10.1663 11.7152 10.0293 11.5736C9.89242 11.4319 7.29095 9.73229 6.46944 9.0241C6.1956 8.74083 5.92176 8.31592 6.46944 7.89101C7.70171 6.61627 9.34474 5.19989 10.1663 4.20843C10.577 3.78352 10.9878 2.79206 9.20782 3.92516L4.14181 7.46609C4.14181 7.46609 3.59413 7.89101 2.49878 7.46609C1.40342 7.18282 0.171149 6.75791 0.171149 6.75791C0.171149 6.75791 -0.513447 6.19136 0.855746 5.6248Z" fill="#F4F6F8" /></symbol><symbol viewBox="0 0 900 780" fill="none" id="tr"><path d="M0.866163 778.571L449.938 0.999773L899.01 778.571H0.866163Z" stroke="#3E4447" stroke-opacity="0.1" /></symbol><symbol viewBox="0 0 870 870" fill="none" id="tr-gbL"><path d="M0.965902 233.145L868.333 0.861229L636.049 868.228L0.965902 233.145Z" stroke="#3E4447" stroke-opacity="0.1" /></symbol><symbol viewBox="0 0 285 279" fill="none" id="tr-gbR"><path d="M283.33 0.680489L197.747 277.26L0.956196 64.9058L283.33 0.680489Z" stroke="#3E4447" stroke-opacity="0.1" /></symbol><symbol viewBox="0 0 17 11" fill="none" id="vk"><path d="M9.38066 9.90078C4.10553 9.90078 1.12762 6.47821 1 0.800781H3.63757C3.72265 4.98839 5.67956 6.76007 7.21105 7.12246V0.800781H9.67845V4.38441C11.2099 4.22335 12.784 2.57246 13.337 0.800781H15.8044C15.379 3.01538 13.6773 4.66627 12.4436 5.35078C13.6773 5.9145 15.6343 7.32379 16.4 9.90078H13.6773C13.0818 8.16937 11.6354 6.8406 9.67845 6.63928V9.90078H9.38066Z" fill="#F4F6F8" stroke="#F4F6F8" stroke-width="0.81" stroke-miterlimit="10" /></symbol><symbol viewBox="0 0 14 14" fill="none" id="youtube"><path d="M4.845 9.14005V9.79586L5.43138 9.50216L10.098 7.16475L10.8223 6.802L10.0975 6.44026L5.43087 4.11101L4.845 3.81859V4.47338V9.14005ZM1.40997 2.37207C1.68032 2.20985 2.05324 2.10444 2.58542 2.06811L11.4145 2.06811C11.9471 2.10457 12.3202 2.21038 12.5907 2.37301C12.8529 2.53067 13.0482 2.75952 13.1964 3.10172C13.3486 3.45346 13.449 3.92114 13.5101 4.5426C13.571 5.16137 13.5908 5.90762 13.595 6.80672C13.5908 7.70738 13.5708 8.45444 13.5098 9.07352C13.4486 9.6953 13.348 10.1628 13.1956 10.5141C13.0474 10.8558 12.8521 11.0841 12.59 11.2414C12.3197 11.4036 11.9467 11.509 11.4145 11.5453C9.33064 11.6876 4.66739 11.687 2.58557 11.5453C2.05293 11.5089 1.67978 11.4031 1.40933 11.2404C1.14714 11.0828 0.951769 10.8539 0.803625 10.5117C0.651351 10.16 0.550951 9.69228 0.489865 9.07082C0.429044 8.45206 0.409243 7.70581 0.405004 6.80671C0.409243 5.90604 0.429189 5.15898 0.490184 4.53991C0.551445 3.91813 0.652044 3.45065 0.804399 3.09933C0.9526 2.75758 1.14793 2.52929 1.40997 2.37207ZM2.5855 2.06811C4.66666 1.92644 9.3305 1.92587 11.4144 2.0681L2.5855 2.06811Z" fill="#F4F6F8" stroke="#F4F6F8" stroke-width="0.81" /></symbol></defs></svg>