<svg xmlns="http://www.w3.org/2000/svg" xmlns:xlink="http://www.w3.org/1999/xlink"><defs><symbol viewBox="0 0 12 12" fill="none" id="arrow-down"><path d="M9.96004 4.4751L6.70004 7.7351C6.31504 8.1201 5.68504 8.1201 5.30004 7.7351L2.04004 4.4751" stroke="#fff" stroke-width="1.5" stroke-miterlimit="10" stroke-linecap="round" stroke-linejoin="round" /></symbol><symbol viewBox="0 0 50 7" fill="none" id="arrow-right"><path d="M46.6767 2.89889C47.3227 3.12689 48.1967 3.35489 49.2227 3.43089L49.2227 3.54889L0.998047 3.54889L0.998047 3.04889L44.7227 3.04889C43.7347 2.47889 42.7247 1.34089 42.0787 0.390889C42.0407 0.314889 42.0027 0.276889 42.0027 0.200889L42.6107 0.0488889C42.8387 0.390889 43.1047 0.694889 43.3707 0.960889C43.5607 1.15089 43.8647 1.41689 44.3207 1.72089C45.2985 2.39786 46.2391 2.73982 46.6636 2.89414L46.6767 2.89889Z" fill="#F2BE47" /><path d="M46.6767 4.15006C47.3227 3.92206 48.1967 3.69406 49.2227 3.61806L49.2227 3.54889L0.998047 3.54889L0.998047 4.04888L44.7227 4.04889C43.7347 4.61889 42.7247 5.70806 42.0787 6.65806C42.0407 6.73406 42.0027 6.77206 42.0027 6.84806L42.6107 7.00006C42.8387 6.65806 43.1047 6.35406 43.3707 6.08806C43.5607 5.89806 43.8647 5.63206 44.3207 5.32806C45.2985 4.65109 46.2391 4.30913 46.6636 4.15481L46.6767 4.15006Z" fill="#F2BE47" /></symbol><symbol viewBox="0 0 21 14" fill="none" id="email"><g clip-path="url(#email_clip0_461_26)"><path d="M20.68 0.318359H0.316406V13.682H20.68V0.318359Z" fill="#3F4347" stroke="#F4F6F8" stroke-width="1.5" /><path d="M-1 14L10.5001 6L22 14H-1Z" stroke="#F4F6F8" stroke-width="1.5" /><path d="M21 1.32622e-06L10.4999 9L0 0L21 1.32622e-06Z" fill="#F2BE47" stroke="#F4F6F8" stroke-width="1.5" /></g><defs></defs></symbol><clipPath id="email_clip0_461_26"><rect fill="#fff" /></clipPath><symbol viewBox="0 0 10 10" fill="none" id="footer_download"><g clip-path="url(#footer_download_clip0_1_37)"><path d="M9.64509 3.92773H0.359375V9.64202H9.64509V3.92773Z" stroke="#F2BE47" /><path d="M7.85491 0H2.14062V5.71429H7.85491V0Z" fill="#000" /><path d="M5.0089 7L6.84592 3.81818H3.17188L5.0089 7ZM4.69072 2.78163e-08V4.13636H5.32708V0L4.69072 2.78163e-08Z" fill="#F2BE47" /></g><defs></defs></symbol><clipPath id="footer_download_clip0_1_37"><rect fill="#fff" /></clipPath><symbol viewBox="0 0 16 10" fill="none" id="footer_email"><g clip-path="url(#footer_email_clip0_1_31)"><path d="M15.77 0.227295H1.22455V9.77275H15.77V0.227295Z" fill="#fff" stroke="#000" stroke-width="1.07143" /><path d="M0.284241 9.99993L8.49858 4.28564L16.7128 9.99993H0.284241Z" stroke="#000" stroke-width="1.07143" /><path d="M15.9985 9.47302e-07L8.49848 6.42857L0.998535 0L15.9985 9.47302e-07Z" fill="#F2BE47" stroke="#000" stroke-width="1.07143" /></g><defs></defs></symbol><clipPath id="footer_email_clip0_1_31"><rect fill="#fff" transform="translate(0.998535)" /></clipPath><symbol viewBox="0 0 16 16" fill="none" id="menu"><g clip-path="url(#menu_clip0_1_378)"><path d="M3.6129 0H0V3.6129H3.6129V0Z" fill="#F2BE47" /><path d="M9.80822 0H6.19531V3.6129H9.80822V0Z" fill="#F2BE47" /><path d="M15.9996 0H12.3867V3.6129H15.9996V0Z" fill="#F2BE47" /><path d="M3.6129 12.3867H0V15.9996H3.6129V12.3867Z" fill="#F2BE47" /><path d="M9.80822 12.3867H6.19531V15.9996H9.80822V12.3867Z" fill="#3E4447" /><path d="M15.9996 12.3867H12.3867V15.9996H15.9996V12.3867Z" fill="#3E4447" /><path d="M3.6129 6.1936H0V9.80651H3.6129V6.1936Z" fill="#F2BE47" /><path d="M9.80822 6.19336H6.19531V9.80626H9.80822V6.19336Z" fill="#F2BE47" /><path d="M15.9996 6.19336H12.3867V9.80626H15.9996V6.19336Z" fill="#3E4447" /></g><defs></defs></symbol><clipPath id="menu_clip0_1_378"><rect fill="#fff" /></clipPath><symbol viewBox="0 0 14 14" fill="none" id="phone"><path d="M10.7799 13.3735L10.084 13.7573C6.01295 15.8696 -1.04713 3.5525 2.92128 1.225L3.5892 0.853417L5.7557 4.62583L5.09128 4.9945C3.88553 5.72075 6.70128 10.6569 7.93737 9.97908L8.6152 9.60458L10.7799 13.3735ZM5.05862 0L4.07862 0.56875L6.24512 4.34058L7.2257 3.77183L5.05862 0ZM10.0829 8.74825L9.10286 9.317L11.2694 13.0894L12.2499 12.5207L10.0829 8.74825Z" fill="#3F4347" /><path d="M4.07862 0.56875L5.05862 0L7.2257 3.77183L6.24512 4.34058L4.07862 0.56875Z" fill="#F2BE47" /><path d="M9.10286 9.317L10.0829 8.74825L12.2499 12.5207L11.2694 13.0894L9.10286 9.317Z" fill="#F2BE47" /></symbol><symbol viewBox="0 0 14 13" fill="none" id="telegram"><path d="M0.855746 5.6248L9.20782 2.08387C10.0293 1.65895 12.7677 0.525855 12.7677 0.525855C12.7677 0.525855 14 -0.040695 14 1.23404C14 1.80059 13.7262 3.50024 13.4523 5.48317L12.4939 11.2903C12.4939 11.2903 12.357 12.1401 11.8093 12.2818C11.2616 12.4234 10.1663 11.7152 10.0293 11.5736C9.89242 11.4319 7.29095 9.73229 6.46944 9.0241C6.1956 8.74083 5.92176 8.31592 6.46944 7.89101C7.70171 6.61627 9.34474 5.19989 10.1663 4.20843C10.577 3.78352 10.9878 2.79206 9.20782 3.92516L4.14181 7.46609C4.14181 7.46609 3.59413 7.89101 2.49878 7.46609C1.40342 7.18282 0.171149 6.75791 0.171149 6.75791C0.171149 6.75791 -0.513447 6.19136 0.855746 5.6248Z" fill="#F4F6F8" /></symbol><symbol viewBox="0 0 900 780" fill="none" id="tr"><path d="M0.866163 778.571L449.938 0.999773L899.01 778.571H0.866163Z" stroke="#3E4447" stroke-opacity="0.1" /></symbol><symbol viewBox="0 0 870 870" fill="none" id="tr-gbL"><path d="M0.965902 233.145L868.333 0.861229L636.049 868.228L0.965902 233.145Z" stroke="#3E4447" stroke-opacity="0.1" /></symbol><symbol viewBox="0 0 285 279" fill="none" id="tr-gbR"><path d="M283.33 0.680489L197.747 277.26L0.956196 64.9058L283.33 0.680489Z" stroke="#3E4447" stroke-opacity="0.1" /></symbol><symbol viewBox="0 0 17 11" fill="none" id="vk"><path d="M9.38066 9.90078C4.10553 9.90078 1.12762 6.47821 1 0.800781H3.63757C3.72265 4.98839 5.67956 6.76007 7.21105 7.12246V0.800781H9.67845V4.38441C11.2099 4.22335 12.784 2.57246 13.337 0.800781H15.8044C15.379 3.01538 13.6773 4.66627 12.4436 5.35078C13.6773 5.9145 15.6343 7.32379 16.4 9.90078H13.6773C13.0818 8.16937 11.6354 6.8406 9.67845 6.63928V9.90078H9.38066Z" fill="#F4F6F8" stroke="#F4F6F8" stroke-width="0.81" stroke-miterlimit="10" /></symbol><symbol viewBox="0 0 14 14" fill="none" id="youtube"><path d="M4.845 9.14005V9.79586L5.43138 9.50216L10.098 7.16475L10.8223 6.802L10.0975 6.44026L5.43087 4.11101L4.845 3.81859V4.47338V9.14005ZM1.40997 2.37207C1.68032 2.20985 2.05324 2.10444 2.58542 2.06811L11.4145 2.06811C11.9471 2.10457 12.3202 2.21038 12.5907 2.37301C12.8529 2.53067 13.0482 2.75952 13.1964 3.10172C13.3486 3.45346 13.449 3.92114 13.5101 4.5426C13.571 5.16137 13.5908 5.90762 13.595 6.80672C13.5908 7.70738 13.5708 8.45444 13.5098 9.07352C13.4486 9.6953 13.348 10.1628 13.1956 10.5141C13.0474 10.8558 12.8521 11.0841 12.59 11.2414C12.3197 11.4036 11.9467 11.509 11.4145 11.5453C9.33064 11.6876 4.66739 11.687 2.58557 11.5453C2.05293 11.5089 1.67978 11.4031 1.40933 11.2404C1.14714 11.0828 0.951769 10.8539 0.803625 10.5117C0.651351 10.16 0.550951 9.69228 0.489865 9.07082C0.429044 8.45206 0.409243 7.70581 0.405004 6.80671C0.409243 5.90604 0.429189 5.15898 0.490184 4.53991C0.551445 3.91813 0.652044 3.45065 0.804399 3.09933C0.9526 2.75758 1.14793 2.52929 1.40997 2.37207ZM2.5855 2.06811C4.66666 1.92644 9.3305 1.92587 11.4144 2.0681L2.5855 2.06811Z" fill="#F4F6F8" stroke="#F4F6F8" stroke-width="0.81" /></symbol></defs></svg>