<svg xmlns="http://www.w3.org/2000/svg" xmlns:xlink="http://www.w3.org/1999/xlink"><defs><symbol viewBox="0 0 12 12" fill="none" id="arrow-down"><path d="M9.96004 4.4751L6.70004 7.7351C6.31504 8.1201 5.68504 8.1201 5.30004 7.7351L2.04004 4.4751" stroke="#fff" stroke-width="1.5" stroke-miterlimit="10" stroke-linecap="round" stroke-linejoin="round" /></symbol><symbol viewBox="0 0 21 14" fill="none" id="email"><g clip-path="url(#email_clip0_461_26)"><path d="M20.68 0.318359H0.316406V13.682H20.68V0.318359Z" fill="#3F4347" stroke="#F4F6F8" stroke-width="1.5" /><path d="M-1 14L10.5001 6L22 14H-1Z" stroke="#F4F6F8" stroke-width="1.5" /><path d="M21 1.32622e-06L10.4999 9L0 0L21 1.32622e-06Z" fill="#F2BE47" stroke="#F4F6F8" stroke-width="1.5" /></g><defs></defs></symbol><clipPath id="email_clip0_461_26"><rect fill="#fff" /></clipPath><symbol viewBox="0 0 33 34" fill="none" id="f"><path d="M13.9612 30.1993H18.7957V18.1543H22.8382L23.4487 13.4683H18.7957V10.4653C18.7957 9.11232 19.1752 8.18832 21.1222 8.18832H23.6137V3.98082C23.1847 3.93132 21.7162 3.79932 20.0002 3.79932C16.4032 3.79932 13.9612 5.99382 13.9612 10.0033V13.4683H9.90222V18.1543H13.9612V30.1993Z" fill="#056CF2" /></symbol><symbol viewBox="0 0 16 16" fill="none" id="menu"><g clip-path="url(#menu_clip0_1_378)"><path d="M3.6129 0H0V3.6129H3.6129V0Z" fill="#F2BE47" /><path d="M9.80822 0H6.19531V3.6129H9.80822V0Z" fill="#F2BE47" /><path d="M15.9996 0H12.3867V3.6129H15.9996V0Z" fill="#F2BE47" /><path d="M3.6129 12.3867H0V15.9996H3.6129V12.3867Z" fill="#F2BE47" /><path d="M9.80822 12.3867H6.19531V15.9996H9.80822V12.3867Z" fill="#3E4447" /><path d="M15.9996 12.3867H12.3867V15.9996H15.9996V12.3867Z" fill="#3E4447" /><path d="M3.6129 6.1936H0V9.80651H3.6129V6.1936Z" fill="#F2BE47" /><path d="M9.80822 6.19336H6.19531V9.80626H9.80822V6.19336Z" fill="#F2BE47" /><path d="M15.9996 6.19336H12.3867V9.80626H15.9996V6.19336Z" fill="#3E4447" /></g><defs></defs></symbol><clipPath id="menu_clip0_1_378"><rect fill="#fff" /></clipPath><symbol viewBox="0 0 14 14" fill="none" id="phone"><path d="M10.7799 13.3735L10.084 13.7573C6.01295 15.8696 -1.04713 3.5525 2.92128 1.225L3.5892 0.853417L5.7557 4.62583L5.09128 4.9945C3.88553 5.72075 6.70128 10.6569 7.93737 9.97908L8.6152 9.60458L10.7799 13.3735ZM5.05862 0L4.07862 0.56875L6.24512 4.34058L7.2257 3.77183L5.05862 0ZM10.0829 8.74825L9.10286 9.317L11.2694 13.0894L12.2499 12.5207L10.0829 8.74825Z" fill="#3F4347" /><path d="M4.07862 0.56875L5.05862 0L7.2257 3.77183L6.24512 4.34058L4.07862 0.56875Z" fill="#F2BE47" /><path d="M9.10286 9.317L10.0829 8.74825L12.2499 12.5207L11.2694 13.0894L9.10286 9.317Z" fill="#F2BE47" /></symbol><symbol viewBox="0 0 900 780" fill="none" id="tr"><path d="M0.866163 778.571L449.938 0.999773L899.01 778.571H0.866163Z" stroke="#3E4447" stroke-opacity="0.1" /></symbol><symbol viewBox="0 0 870 870" fill="none" id="tr-gbL"><path d="M0.965902 233.145L868.333 0.861229L636.049 868.228L0.965902 233.145Z" stroke="#3E4447" stroke-opacity="0.1" /></symbol><symbol viewBox="0 0 285 279" fill="none" id="tr-gbR"><path d="M283.33 0.680489L197.747 277.26L0.956196 64.9058L283.33 0.680489Z" stroke="#3E4447" stroke-opacity="0.1" /></symbol><symbol viewBox="0 0 28 29" fill="none" id="vk"><g clip-path="url(#vk_clip0_448_6938)"><path d="M15.3337 23.6562C6.2049 23.6562 0.998082 17.6385 0.781128 7.625H5.35386C5.50406 14.9747 8.87511 18.0878 11.5453 18.7297V7.625H15.8512V13.9637C18.488 13.6909 21.258 10.8024 22.1926 7.625H26.4984C25.7808 11.5405 22.7768 14.4291 20.6406 15.6166C22.7768 16.5794 26.1982 19.0988 27.4999 23.6562H22.7601C21.7421 20.6073 19.2056 18.2483 15.8512 17.9274V23.6562H15.3337Z" fill="#056CF2" /></g><defs></defs></symbol><clipPath id="vk_clip0_448_6938"><rect fill="#fff" transform="translate(0.499878 0.5)" /></clipPath></defs></svg>