<svg width="79" height="79" viewBox="0 0 79 79" fill="none" xmlns="http://www.w3.org/2000/svg">
<circle cx="39.5" cy="39.5" r="39.5" fill="#3F4347"/>
<path d="M55.2455 47.3857C52.7485 47.3857 50.832 46.7513 49.4958 45.4826C48.173 44.2004 47.5117 42.4121 47.5117 40.1176C47.5117 37.7151 48.1596 35.8795 49.4553 34.6108C50.7645 33.3286 52.6675 32.6875 55.1645 32.6875C56.8516 32.6875 58.2957 32.9507 59.497 33.4771L58.7682 35.5421C58.2553 35.3936 57.8976 35.2992 57.6952 35.2587C57.5062 35.2047 57.1756 35.1507 56.7031 35.0967C56.2443 35.0292 55.7448 34.9955 55.205 34.9955C53.7608 34.9685 52.5865 35.3734 51.6823 36.2102C50.7915 37.0335 50.3461 38.2685 50.3461 39.9151C50.3461 41.6022 50.8252 42.8844 51.7835 43.7617C52.7553 44.6255 54.0307 45.0575 55.6099 45.0575C56.8246 45.0575 57.9381 44.909 58.9504 44.6121L59.5577 46.7378C58.3565 47.1698 56.9191 47.3857 55.2455 47.3857Z" fill="#F2BE47"/>
<path d="M19.4492 47.3857V32.6875H24.8129C26.4206 32.6875 27.7096 33.131 28.6798 34.018C29.6499 34.8912 30.135 36.1108 30.135 37.677C30.135 39.1461 29.5737 40.3658 28.4511 41.3359C27.3423 42.3061 25.7692 42.7912 23.7319 42.7912H22.1216V40.5667H23.8566C24.9515 40.5667 25.7831 40.3242 26.3513 39.8391C26.9196 39.3401 27.2037 38.6472 27.2037 37.7601C27.2037 35.8752 26.2543 34.9328 24.3555 34.9328H22.2974V47.3857H19.4492Z" fill="#F2BE47"/>
<g clip-path="url(#clip0_782_11414)">
<path d="M33.4727 20.6602H36.1451V38.3648L34.8089 39.3669L33.4727 38.3648V20.6602Z" fill="white"/>
<path d="M36.1451 59.4099H33.4727L33.4727 41.7053L34.8089 40.7031L36.1451 41.7053V59.4099Z" fill="white"/>
<path d="M43.0645 32.0156H46.1698L38.1752 41.805L36.1484 40.0632L43.0645 32.0156Z" fill="white"/>
<path d="M43.0645 47.8206L46.1699 47.7188L38.1752 38.0312L36.1484 40.0356L43.0645 47.8206Z" fill="white"/>
</g>
<defs>
<clipPath id="clip0_782_11414">
<rect width="13.362" height="38.7497" fill="white" transform="translate(33.4766 20.6602)"/>
</clipPath>
</defs>
</svg>
